HIERARCHY
ROOT SpineBase
{
  OFFSET 0.000000 0.000000 0.000000
  CHANNELS 6 Xposition Yposition Zposition Zrotation Xrotation Yrotation
  JOINT SpineMid
  {
    OFFSET -0.000000 30.106586 0.000000
    CHANNELS 3 Zrotation Xrotation Yrotation
    JOINT SpineShoulder
    {
      OFFSET 0.072741 22.219418 -0.633346
      CHANNELS 3 Zrotation Xrotation Yrotation
      JOINT Neck
      {
        OFFSET 0.052150 7.311555 -0.512551
        CHANNELS 3 Zrotation Xrotation Yrotation
        JOINT Head
        {
          OFFSET 6.501968 10.163831 5.290332
          CHANNELS 3 Zrotation Xrotation Yrotation
          End Site
          {
            OFFSET 0 0 0
          }
        }
      }
      JOINT ShoulderLeft
      {
        OFFSET -10.004094 -1.977126 -13.345676
        CHANNELS 3 Zrotation Xrotation Yrotation
        JOINT ElbowLeft
        {
          OFFSET -7.406550 -24.588070 -8.102505
          CHANNELS 3 Zrotation Xrotation Yrotation
          JOINT WristLeft
          {
            OFFSET 0.993204 -22.832586 -6.777411
            CHANNELS 3 Zrotation Xrotation Yrotation
            JOINT HandLeft
            {
              OFFSET 0.549730 -6.356705 -0.124919
              CHANNELS 3 Zrotation Xrotation Yrotation
              JOINT HandTipLeft
              {
                OFFSET 1.347446 -5.637199 -0.969874
                CHANNELS 3 Zrotation Xrotation Yrotation
                End Site
                {
                  OFFSET 0 0 0
                }
              }
              JOINT ThumbLeft
              {
                OFFSET -4.486449 -0.218227 -1.427023
                CHANNELS 3 Zrotation Xrotation Yrotation
                End Site
                {
                  OFFSET 0 0 0
                }
              }
            }
          }
        }
      }
      JOINT ShoulderRight
      {
        OFFSET 10.606526 -7.680059 13.716622
        CHANNELS 3 Zrotation Xrotation Yrotation
        JOINT ElbowRight
        {
          OFFSET 2.437595 -26.770228 0.857552
          CHANNELS 3 Zrotation Xrotation Yrotation
          JOINT WristRight
          {
            OFFSET -2.282263 -25.084741 -0.012389
            CHANNELS 3 Zrotation Xrotation Yrotation
            JOINT HandRight
            {
              OFFSET 0.239406 -3.083109 0.626120
              CHANNELS 3 Zrotation Xrotation Yrotation
              JOINT HandTipRight
              {
                OFFSET 0.213153 -3.104793 -1.108403
                CHANNELS 3 Zrotation Xrotation Yrotation
                End Site
                {
                  OFFSET 0 0 0
                }
              }
              JOINT ThumbRight
              {
                OFFSET 0.988973 0.702875 -1.135017
                CHANNELS 3 Zrotation Xrotation Yrotation
                End Site
                {
                  OFFSET 0 0 0
                }
              }
            }
          }
        }
      }
    }
  }
  JOINT HipLeft
  {
    OFFSET -3.223863 1.320241 -9.128069
    CHANNELS 3 Zrotation Xrotation Yrotation
    JOINT KneeLeft
    {
      OFFSET -15.104934 -39.845219 -9.613501
      CHANNELS 3 Zrotation Xrotation Yrotation
      JOINT AnkleLeft
      {
        OFFSET -13.003837 -38.714177 0.555926
        CHANNELS 3 Zrotation Xrotation Yrotation
        JOINT FootLeft
        {
          OFFSET 4.830030 -3.205122 -7.089168
          CHANNELS 3 Zrotation Xrotation Yrotation
          End Site
          {
            OFFSET 0 0 0
          }
        }
      }
    }
  }
  JOINT HipRight
  {
    OFFSET 3.664301 -0.337754 1.823315
    CHANNELS 3 Zrotation Xrotation Yrotation
    JOINT KneeRight
    {
      OFFSET -3.345978 -40.859755 5.428618
      CHANNELS 3 Zrotation Xrotation Yrotation
      JOINT AnkleRight
      {
        OFFSET -3.761293 -35.279794 7.014980
        CHANNELS 3 Zrotation Xrotation Yrotation
        JOINT FootRight
        {
          OFFSET 5.814200 -2.768371 -7.650068
          CHANNELS 3 Zrotation Xrotation Yrotation
          End Site
          {
            OFFSET 0 0 0
          }
        }
      }
    }
  }
}
MOTION
Frames: 14
Frame Time: 0.033333
-20.459313 81.604824 338.258177 0.652358 2.091600 -55.230605 0.170928 -0.186405 55.230332 0.077861 -0.276317 0.028040 4.178206 -5.004851 -0.098703 0.000000 0.000000 0.000000 -0.951245 -4.752604 0.997662 1.543473 -0.452270 -1.638232 0.200357 14.209942 1.233111 -3.157075 -11.123639 -1.215735 0.000000 0.000000 0.000000 0.000000 0.000000 0.000000 -1.202067 -3.554295 -0.266582 8.086352 13.947820 -1.974006 -17.873218 5.416376 -1.125897 13.245142 -27.373294 2.070361 0.000000 0.000000 0.000000 0.000000 0.000000 0.000000 8.571216 -4.604135 58.149568 1.467705 3.915003 -1.445541 0.488509 7.984558 -2.124901 0.000000 0.000000 0.000000 -0.175241 -1.043143 55.027076 -0.101415 -3.466111 0.272691 -0.048300 2.874557 3.344475 0.000000 0.000000 0.000000
-20.420701 81.631692 338.307280 0.670468 1.987250 -54.986165 0.164489 -0.236589 54.985392 0.058837 -0.316616 0.026159 4.162595 -5.041649 0.065533 0.000000 0.000000 0.000000 -0.934234 -4.527934 0.992604 1.579033 -0.286703 -1.623325 0.501526 17.831918 1.448247 -4.585284 -13.504704 -1.467745 0.000000 0.000000 0.000000 0.000000 0.000000 0.000000 -0.776514 -2.740591 -0.173870 7.373397 12.500814 -1.783093 -18.008037 6.961738 -0.944981 13.835925 -31.301339 2.184635 0.000000 0.000000 0.000000 0.000000 0.000000 0.000000 8.343381 -4.582924 57.866190 1.525631 3.887793 -1.446181 0.433431 7.951342 -1.958596 0.000000 0.000000 0.000000 -0.294019 -0.990684 54.779543 -0.116033 -3.410466 0.262486 -0.058336 2.829605 3.496537 0.000000 0.000000 0.000000
-20.411663 81.647490 338.333791 0.644195 1.909105 -54.755579 0.167779 -0.286371 54.753875 0.034659 -0.351827 0.022001 4.303645 -5.011413 0.116366 0.000000 0.000000 0.000000 -0.947262 -4.281137 0.997946 1.639720 0.001389 -1.597256 0.462882 20.378347 1.653199 -5.409457 -16.115538 -1.933725 0.000000 0.000000 0.000000 0.000000 0.000000 0.000000 -0.403173 -2.066299 -0.100347 6.660113 11.483297 -1.647358 -17.887248 7.558285 -0.872341 16.067774 -32.026939 2.479675 0.000000 0.000000 0.000000 0.000000 0.000000 0.000000 8.222553 -4.526961 57.604481 1.525414 3.906097 -1.451372 0.394594 7.915774 -1.788746 0.000000 0.000000 0.000000 -0.272198 -0.878886 54.565820 -0.288130 -3.254403 0.213588 0.000770 2.736653 3.669244 0.000000 0.000000 0.000000
-20.405694 81.663963 338.384432 0.570549 1.832860 -54.436468 0.165033 -0.324216 54.433269 0.005789 -0.360475 0.015276 4.515792 -5.058873 0.189148 0.000000 0.000000 0.000000 -0.970398 -3.977744 0.993785 1.759725 0.378645 -1.552832 -0.223590 22.122199 1.966376 -5.033597 -18.653047 -2.319997 0.000000 0.000000 0.000000 0.000000 0.000000 0.000000 -0.408942 -1.149418 -0.024553 6.672990 9.873504 -1.488632 -18.479894 8.305703 -0.895880 16.378095 -33.418427 2.680671 0.000000 0.000000 0.000000 0.000000 0.000000 0.000000 8.165464 -4.461951 57.268939 1.531860 4.035968 -1.498613 0.322140 7.826173 -1.536814 0.000000 0.000000 0.000000 -0.183267 -0.700905 54.273377 -0.582364 -3.042789 0.134989 0.122047 2.612167 3.916177 0.000000 0.000000 0.000000
-20.379530 81.680390 338.478524 0.491714 1.734366 -53.922440 0.167095 -0.344503 53.918535 -0.014441 -0.357778 0.009873 4.605566 -5.049742 0.271714 0.000000 0.000000 0.000000 -1.084486 -3.570975 0.979373 1.880234 0.819493 -1.471255 -1.333622 23.149642 2.338058 -4.516388 -21.415107 -2.814730 0.000000 0.000000 0.000000 0.000000 0.000000 0.000000 -0.297428 -1.038591 -0.016127 6.493109 9.516821 -1.419336 -18.760289 9.435699 -0.767138 15.759068 -33.168323 2.835838 0.000000 0.000000 0.000000 0.000000 0.000000 0.000000 8.065544 -4.416964 56.739303 1.570419 4.215518 -1.570408 0.223013 7.688426 -1.233666 0.000000 0.000000 0.000000 -0.100094 -0.493224 53.787968 -0.942650 -2.807852 0.040785 0.287441 2.471476 4.205373 0.000000 0.000000 0.000000
-20.309187 81.689469 338.642028 0.414232 1.604207 -53.048536 0.163388 -0.339913 53.044712 -0.026437 -0.339178 0.006029 4.598354 -5.146217 0.459552 0.000000 0.000000 0.000000 -1.335240 -3.021828 0.953427 2.012513 1.193461 -1.344453 -2.175823 23.057717 2.538806 -3.119870 -22.758387 -2.830453 0.000000 0.000000 0.000000 0.000000 0.000000 0.000000 0.215545 -2.576005 -0.132976 6.135985 12.380010 -1.654785 -19.406583 9.695579 -0.859304 16.659035 -34.096208 3.296193 0.000000 0.000000 0.000000 0.000000 0.000000 0.000000 7.822345 -4.384065 55.820334 1.633630 4.379580 -1.641835 0.074897 7.548016 -0.701151 0.000000 0.000000 0.000000 -0.015360 -0.286720 52.944857 -1.359482 -2.498853 -0.071273 0.467270 2.337362 4.718978 0.000000 0.000000 0.000000
-20.184772 81.700164 338.903861 0.322978 1.446632 -52.127651 0.156753 -0.305763 52.124389 -0.029301 -0.302130 0.003220 4.290566 -5.393776 0.884800 0.000000 0.000000 0.000000 -1.528479 -2.355047 0.869789 1.403175 1.500198 -0.932103 -2.485883 22.245725 2.480714 -0.967160 -24.120995 -2.750611 0.000000 0.000000 0.000000 0.000000 0.000000 0.000000 0.683935 -4.387021 -0.264236 5.242812 16.664662 -1.963439 -19.121353 7.791510 -1.254715 15.849278 -29.922775 3.468919 0.000000 0.000000 0.000000 0.000000 0.000000 0.000000 7.497492 -4.306353 54.828524 1.691403 4.515728 -1.703954 0.009096 7.302546 -0.357864 0.000000 0.000000 0.000000 -0.042178 -0.015816 52.040260 -1.793691 -2.283047 -0.183811 0.735335 2.139148 5.039400 0.000000 0.000000 0.000000
-20.014897 81.722928 339.227967 0.223118 1.305233 -51.362607 0.153792 -0.246604 51.360060 -0.126506 -1.031125 -0.001368 3.730166 -4.887652 1.406062 0.000000 0.000000 0.000000 -1.707947 -0.824243 0.797160 1.853457 1.730512 -0.819675 -3.655196 19.992844 2.486489 1.932261 -24.064416 -2.322024 0.000000 0.000000 0.000000 0.000000 0.000000 0.000000 0.984595 -4.944013 -0.375599 4.289894 21.174291 -2.247447 -17.861906 4.600297 -1.637608 15.251688 -25.734194 3.437388 0.000000 0.000000 0.000000 0.000000 0.000000 0.000000 7.198444 -4.209796 53.994258 1.724673 4.671423 -1.772604 0.028446 6.980442 -0.181605 0.000000 0.000000 0.000000 -0.169947 0.279053 51.273440 -2.181086 -2.178894 -0.284613 1.050756 1.896521 5.187047 0.000000 0.000000 0.000000
-19.801557 81.741937 339.616114 0.037801 1.229525 -50.823439 0.157461 -0.220018 50.818538 0.033368 -0.968470 0.004403 3.333378 -5.501978 2.035699 0.000000 0.000000 0.000000 -2.050751 -0.086793 0.696855 1.631023 1.921289 -0.480999 -3.440365 16.868891 2.019088 3.251623 -22.194903 -1.998814 0.000000 0.000000 0.000000 0.000000 0.000000 0.000000 0.918145 -5.411614 -0.419380 3.474210 24.312179 -2.389899 -17.551914 3.389607 -1.909731 15.495932 -24.057526 3.907252 0.000000 0.000000 0.000000 0.000000 0.000000 0.000000 6.984277 -4.062827 53.380513 1.747383 4.794901 -1.833292 0.126456 6.616096 -0.146600 0.000000 0.000000 0.000000 -0.310289 0.613608 50.717276 -2.482085 -2.182863 -0.366926 1.373018 1.620779 5.191084 0.000000 0.000000 0.000000
-19.543146 81.766676 340.056542 -0.170863 1.179364 -50.472764 0.166491 -0.205052 50.464524 0.223219 -0.920405 0.011166 3.055651 -6.289264 2.728532 0.000000 0.000000 0.000000 -2.302232 0.531579 0.604721 1.246527 2.285495 -0.126749 -2.898130 13.081082 1.406665 4.274345 -20.438394 -1.940017 0.000000 0.000000 0.000000 0.000000 0.000000 0.000000 0.572414 -5.010553 -0.412384 3.157101 26.076543 -2.509336 -17.795641 2.516965 -2.295746 14.583826 -26.125793 4.233177 0.000000 0.000000 0.000000 0.000000 0.000000 0.000000 6.717816 -3.865396 52.925088 1.803485 4.759182 -1.842895 0.247922 6.298871 -0.185621 0.000000 0.000000 0.000000 -0.568809 0.951213 50.328816 -2.636784 -2.337540 -0.417593 1.658981 1.361060 5.131859 0.000000 0.000000 0.000000
-19.280197 81.804255 340.496257 -0.389871 1.187842 -50.350519 0.172085 -0.184852 50.338537 0.010302 -0.171435 -0.019789 3.071106 -7.756358 3.493426 0.000000 0.000000 0.000000 -2.054175 0.226427 0.534330 0.803598 2.698442 0.192687 -2.205243 8.870739 0.741391 4.110356 -17.059320 -1.798847 0.000000 0.000000 0.000000 0.000000 0.000000 0.000000 0.417765 -4.485996 -0.301070 3.160242 26.211521 -2.579139 -18.067704 1.818069 -2.667188 14.214182 -25.959183 4.594941 0.000000 0.000000 0.000000 0.000000 0.000000 0.000000 6.569166 -3.638653 52.697551 1.707623 4.729796 -1.830294 0.478140 5.995981 -0.254663 0.000000 0.000000 0.000000 -0.843830 1.252655 50.161398 -2.672873 -2.586800 -0.439928 1.882060 1.145053 5.031326 0.000000 0.000000 0.000000
-19.016695 81.860204 340.908965 -0.632746 1.243841 -50.407718 0.165900 -0.181939 50.390833 0.016198 -0.164255 -0.030121 2.995279 -8.320508 4.010486 0.000000 0.000000 0.000000 -1.867901 0.380610 0.504945 0.352750 3.144700 0.435702 -1.122390 5.603580 0.215626 2.299623 -13.044818 -1.416268 0.000000 0.000000 0.000000 0.000000 0.000000 0.000000 -0.076313 -2.525320 -0.142211 3.419254 24.539345 -2.570016 -18.492664 3.630389 -2.545468 15.723139 -28.020483 5.181340 0.000000 0.000000 0.000000 0.000000 0.000000 0.000000 6.554378 -3.396844 52.662235 1.499791 4.761133 -1.822843 0.771056 5.694584 -0.303092 0.000000 0.000000 0.000000 -1.075425 1.528501 50.175271 -2.662174 -2.845839 -0.451888 2.067794 0.947209 4.941410 0.000000 0.000000 0.000000
-18.780823 81.917586 341.252671 -0.870733 1.351682 -50.654333 0.157506 -0.188022 50.632734 0.020044 -0.161983 -0.040946 2.892252 -8.744443 4.411317 0.000000 0.000000 0.000000 -1.598413 0.274007 0.511084 -0.072483 3.649102 0.602684 -0.176333 1.730103 -0.310390 1.912793 -9.011445 -1.017844 0.000000 0.000000 0.000000 0.000000 0.000000 0.000000 -0.685528 0.003163 0.100138 3.953792 20.977986 -2.468536 -18.776297 6.346467 -2.089166 15.840657 -28.932549 5.526311 0.000000 0.000000 0.000000 0.000000 0.000000 0.000000 6.720242 -3.157852 52.839149 1.122571 4.893131 -1.822822 1.123090 5.423180 -0.267678 0.000000 0.000000 0.000000 -1.222045 1.737048 50.385937 -2.651536 -3.028532 -0.466533 2.226055 0.755411 4.934072 0.000000 0.000000 0.000000
-18.572372 81.971941 341.553451 -1.114217 1.451267 -50.851781 0.139189 -0.176772 50.826146 0.010532 -0.131026 -0.052728 2.835315 -9.128121 4.740752 0.000000 0.000000 0.000000 -1.217006 -0.170208 0.569435 -0.320806 3.996086 0.605942 0.529208 -0.214821 -0.539850 0.618439 -6.566219 -0.694481 0.000000 0.000000 0.000000 0.000000 0.000000 0.000000 -1.359594 2.949822 0.430318 4.903685 15.815280 -2.284969 -19.604825 9.780257 -1.533918 14.607144 -32.022992 5.439259 0.000000 0.000000 0.000000 0.000000 0.000000 0.000000 6.995710 -2.938990 52.999219 0.705259 5.223292 -1.883656 1.433217 5.103190 -0.073505 0.000000 0.000000 0.000000 -1.272763 1.890125 50.557866 -2.633601 -3.030307 -0.487250 2.340842 0.530342 5.055688 0.000000 0.000000 0.000000
